<mxfile host="app.diagrams.net" modified="2023-03-28T13:32:06.682Z" agent="Mozilla/5.0 (Windows NT 10.0; Win64; x64) AppleWebKit/537.36 (KHTML, like Gecko) Chrome/110.0.0.0 Safari/537.36" etag="o4bW6K4kylnsNKTLXVRw" version="21.1.1" type="device">
  <diagram name="Página-1" id="UAN5os5tiGlqr3itD5Wb">
    <mxGraphModel dx="1434" dy="796" grid="1" gridSize="10" guides="1" tooltips="1" connect="1" arrows="1" fold="1" page="1" pageScale="1" pageWidth="827" pageHeight="1169" math="0" shadow="0">
      <root>
        <mxCell id="0" />
        <mxCell id="1" parent="0" />
        <mxCell id="kqK2nwmcqiVlSpdfemAR-32" value="" style="ellipse;whiteSpace=wrap;html=1;" parent="1" vertex="1">
          <mxGeometry x="50" y="670" width="70" height="50" as="geometry" />
        </mxCell>
        <mxCell id="iGtKDFYCZPcTqpnV3GEi-1" value="Excercícios:" style="text;html=1;strokeColor=none;fillColor=none;align=center;verticalAlign=middle;whiteSpace=wrap;rounded=0;fontStyle=1;fontSize=14;" parent="1" vertex="1">
          <mxGeometry x="50" y="20" width="60" height="30" as="geometry" />
        </mxCell>
        <mxCell id="iGtKDFYCZPcTqpnV3GEi-2" value="a)" style="text;html=1;strokeColor=none;fillColor=none;align=center;verticalAlign=middle;whiteSpace=wrap;rounded=0;" parent="1" vertex="1">
          <mxGeometry x="20" y="60" width="60" height="30" as="geometry" />
        </mxCell>
        <mxCell id="iGtKDFYCZPcTqpnV3GEi-7" value="" style="edgeStyle=orthogonalEdgeStyle;rounded=0;orthogonalLoop=1;jettySize=auto;html=1;" parent="1" source="iGtKDFYCZPcTqpnV3GEi-3" target="iGtKDFYCZPcTqpnV3GEi-6" edge="1">
          <mxGeometry relative="1" as="geometry" />
        </mxCell>
        <mxCell id="iGtKDFYCZPcTqpnV3GEi-10" value="" style="edgeStyle=orthogonalEdgeStyle;rounded=0;orthogonalLoop=1;jettySize=auto;html=1;" parent="1" source="iGtKDFYCZPcTqpnV3GEi-3" target="iGtKDFYCZPcTqpnV3GEi-9" edge="1">
          <mxGeometry relative="1" as="geometry" />
        </mxCell>
        <mxCell id="iGtKDFYCZPcTqpnV3GEi-12" value="" style="edgeStyle=orthogonalEdgeStyle;rounded=0;orthogonalLoop=1;jettySize=auto;html=1;" parent="1" source="iGtKDFYCZPcTqpnV3GEi-3" target="iGtKDFYCZPcTqpnV3GEi-9" edge="1">
          <mxGeometry relative="1" as="geometry" />
        </mxCell>
        <mxCell id="iGtKDFYCZPcTqpnV3GEi-15" value="" style="edgeStyle=orthogonalEdgeStyle;rounded=0;orthogonalLoop=1;jettySize=auto;html=1;" parent="1" source="iGtKDFYCZPcTqpnV3GEi-3" target="iGtKDFYCZPcTqpnV3GEi-14" edge="1">
          <mxGeometry relative="1" as="geometry" />
        </mxCell>
        <mxCell id="iGtKDFYCZPcTqpnV3GEi-3" value="Soldado" style="rounded=0;whiteSpace=wrap;html=1;" parent="1" vertex="1">
          <mxGeometry x="230" y="100" width="120" height="60" as="geometry" />
        </mxCell>
        <mxCell id="iGtKDFYCZPcTqpnV3GEi-6" value="&lt;u&gt;rm&lt;/u&gt;" style="ellipse;whiteSpace=wrap;html=1;rounded=0;" parent="1" vertex="1">
          <mxGeometry x="50" y="90" width="60" height="30" as="geometry" />
        </mxCell>
        <mxCell id="iGtKDFYCZPcTqpnV3GEi-9" value="nome" style="ellipse;whiteSpace=wrap;html=1;rounded=0;" parent="1" vertex="1">
          <mxGeometry x="50" y="170" width="70" height="30" as="geometry" />
        </mxCell>
        <mxCell id="iGtKDFYCZPcTqpnV3GEi-14" value="data nasc" style="ellipse;whiteSpace=wrap;html=1;rounded=0;" parent="1" vertex="1">
          <mxGeometry x="150" y="170" width="70" height="30" as="geometry" />
        </mxCell>
        <mxCell id="iGtKDFYCZPcTqpnV3GEi-16" value="Possui" style="rhombus;whiteSpace=wrap;html=1;rounded=0;" parent="1" vertex="1">
          <mxGeometry x="435" y="90" width="110" height="80" as="geometry" />
        </mxCell>
        <mxCell id="iGtKDFYCZPcTqpnV3GEi-18" value="" style="endArrow=none;html=1;rounded=0;exitX=1;exitY=0.5;exitDx=0;exitDy=0;entryX=0;entryY=0.5;entryDx=0;entryDy=0;" parent="1" source="iGtKDFYCZPcTqpnV3GEi-3" target="iGtKDFYCZPcTqpnV3GEi-16" edge="1">
          <mxGeometry width="50" height="50" relative="1" as="geometry">
            <mxPoint x="430" y="320" as="sourcePoint" />
            <mxPoint x="480" y="270" as="targetPoint" />
          </mxGeometry>
        </mxCell>
        <mxCell id="iGtKDFYCZPcTqpnV3GEi-24" value="" style="edgeStyle=orthogonalEdgeStyle;rounded=0;orthogonalLoop=1;jettySize=auto;html=1;" parent="1" source="iGtKDFYCZPcTqpnV3GEi-19" target="iGtKDFYCZPcTqpnV3GEi-23" edge="1">
          <mxGeometry relative="1" as="geometry" />
        </mxCell>
        <mxCell id="iGtKDFYCZPcTqpnV3GEi-26" value="" style="edgeStyle=orthogonalEdgeStyle;rounded=0;orthogonalLoop=1;jettySize=auto;html=1;" parent="1" source="iGtKDFYCZPcTqpnV3GEi-19" target="iGtKDFYCZPcTqpnV3GEi-25" edge="1">
          <mxGeometry relative="1" as="geometry" />
        </mxCell>
        <mxCell id="iGtKDFYCZPcTqpnV3GEi-28" value="" style="edgeStyle=orthogonalEdgeStyle;rounded=0;orthogonalLoop=1;jettySize=auto;html=1;" parent="1" source="iGtKDFYCZPcTqpnV3GEi-19" target="iGtKDFYCZPcTqpnV3GEi-27" edge="1">
          <mxGeometry relative="1" as="geometry" />
        </mxCell>
        <mxCell id="iGtKDFYCZPcTqpnV3GEi-19" value="Arma" style="rounded=0;whiteSpace=wrap;html=1;" parent="1" vertex="1">
          <mxGeometry x="630" y="100" width="120" height="60" as="geometry" />
        </mxCell>
        <mxCell id="iGtKDFYCZPcTqpnV3GEi-20" value="" style="endArrow=none;html=1;rounded=0;exitX=1;exitY=0.5;exitDx=0;exitDy=0;entryX=0;entryY=0.5;entryDx=0;entryDy=0;" parent="1" source="iGtKDFYCZPcTqpnV3GEi-16" target="iGtKDFYCZPcTqpnV3GEi-19" edge="1">
          <mxGeometry width="50" height="50" relative="1" as="geometry">
            <mxPoint x="580" y="170" as="sourcePoint" />
            <mxPoint x="630" y="120" as="targetPoint" />
          </mxGeometry>
        </mxCell>
        <mxCell id="iGtKDFYCZPcTqpnV3GEi-21" value="N" style="text;html=1;strokeColor=none;fillColor=none;align=center;verticalAlign=middle;whiteSpace=wrap;rounded=0;" parent="1" vertex="1">
          <mxGeometry x="580" y="100" width="60" height="30" as="geometry" />
        </mxCell>
        <mxCell id="iGtKDFYCZPcTqpnV3GEi-22" value="1" style="text;html=1;strokeColor=none;fillColor=none;align=center;verticalAlign=middle;whiteSpace=wrap;rounded=0;" parent="1" vertex="1">
          <mxGeometry x="340" y="100" width="60" height="30" as="geometry" />
        </mxCell>
        <mxCell id="iGtKDFYCZPcTqpnV3GEi-23" value="&lt;u&gt;serie&lt;/u&gt;" style="ellipse;whiteSpace=wrap;html=1;rounded=0;" parent="1" vertex="1">
          <mxGeometry x="900" y="90" width="70" height="30" as="geometry" />
        </mxCell>
        <mxCell id="iGtKDFYCZPcTqpnV3GEi-25" value="registro" style="ellipse;whiteSpace=wrap;html=1;rounded=0;" parent="1" vertex="1">
          <mxGeometry x="910" y="170" width="50" height="30" as="geometry" />
        </mxCell>
        <mxCell id="iGtKDFYCZPcTqpnV3GEi-27" value="calibre" style="ellipse;whiteSpace=wrap;html=1;rounded=0;" parent="1" vertex="1">
          <mxGeometry x="770" y="167.5" width="60" height="35" as="geometry" />
        </mxCell>
        <mxCell id="iGtKDFYCZPcTqpnV3GEi-29" value="Limpa" style="rhombus;whiteSpace=wrap;html=1;" parent="1" vertex="1">
          <mxGeometry x="430" y="202.5" width="120" height="80" as="geometry" />
        </mxCell>
        <mxCell id="iGtKDFYCZPcTqpnV3GEi-30" value="" style="endArrow=none;html=1;rounded=0;entryX=1;entryY=1;entryDx=0;entryDy=0;exitX=0;exitY=0.5;exitDx=0;exitDy=0;" parent="1" source="iGtKDFYCZPcTqpnV3GEi-29" target="iGtKDFYCZPcTqpnV3GEi-3" edge="1">
          <mxGeometry width="50" height="50" relative="1" as="geometry">
            <mxPoint x="300" y="260" as="sourcePoint" />
            <mxPoint x="350" y="210" as="targetPoint" />
          </mxGeometry>
        </mxCell>
        <mxCell id="iGtKDFYCZPcTqpnV3GEi-31" value="" style="endArrow=none;html=1;rounded=0;exitX=1;exitY=0.5;exitDx=0;exitDy=0;entryX=0;entryY=1;entryDx=0;entryDy=0;" parent="1" source="iGtKDFYCZPcTqpnV3GEi-29" target="iGtKDFYCZPcTqpnV3GEi-19" edge="1">
          <mxGeometry width="50" height="50" relative="1" as="geometry">
            <mxPoint x="570" y="230" as="sourcePoint" />
            <mxPoint x="620" y="180" as="targetPoint" />
          </mxGeometry>
        </mxCell>
        <mxCell id="iGtKDFYCZPcTqpnV3GEi-32" value="N" style="text;html=1;strokeColor=none;fillColor=none;align=center;verticalAlign=middle;whiteSpace=wrap;rounded=0;" parent="1" vertex="1">
          <mxGeometry x="360" y="160" width="60" height="30" as="geometry" />
        </mxCell>
        <mxCell id="iGtKDFYCZPcTqpnV3GEi-33" value="N" style="text;html=1;strokeColor=none;fillColor=none;align=center;verticalAlign=middle;whiteSpace=wrap;rounded=0;" parent="1" vertex="1">
          <mxGeometry x="560" y="160" width="60" height="30" as="geometry" />
        </mxCell>
        <mxCell id="iGtKDFYCZPcTqpnV3GEi-34" value="b)" style="text;html=1;strokeColor=none;fillColor=none;align=center;verticalAlign=middle;whiteSpace=wrap;rounded=0;" parent="1" vertex="1">
          <mxGeometry x="20" y="300" width="60" height="30" as="geometry" />
        </mxCell>
        <mxCell id="iGtKDFYCZPcTqpnV3GEi-37" value="" style="edgeStyle=orthogonalEdgeStyle;rounded=0;orthogonalLoop=1;jettySize=auto;html=1;" parent="1" source="iGtKDFYCZPcTqpnV3GEi-35" target="iGtKDFYCZPcTqpnV3GEi-36" edge="1">
          <mxGeometry relative="1" as="geometry" />
        </mxCell>
        <mxCell id="iGtKDFYCZPcTqpnV3GEi-39" value="" style="edgeStyle=orthogonalEdgeStyle;rounded=0;orthogonalLoop=1;jettySize=auto;html=1;" parent="1" source="iGtKDFYCZPcTqpnV3GEi-35" target="iGtKDFYCZPcTqpnV3GEi-38" edge="1">
          <mxGeometry relative="1" as="geometry" />
        </mxCell>
        <mxCell id="iGtKDFYCZPcTqpnV3GEi-43" value="" style="edgeStyle=orthogonalEdgeStyle;rounded=0;orthogonalLoop=1;jettySize=auto;html=1;" parent="1" source="iGtKDFYCZPcTqpnV3GEi-35" target="iGtKDFYCZPcTqpnV3GEi-42" edge="1">
          <mxGeometry relative="1" as="geometry" />
        </mxCell>
        <mxCell id="iGtKDFYCZPcTqpnV3GEi-45" value="" style="edgeStyle=orthogonalEdgeStyle;rounded=0;orthogonalLoop=1;jettySize=auto;html=1;" parent="1" source="iGtKDFYCZPcTqpnV3GEi-35" target="iGtKDFYCZPcTqpnV3GEi-44" edge="1">
          <mxGeometry relative="1" as="geometry" />
        </mxCell>
        <mxCell id="iGtKDFYCZPcTqpnV3GEi-35" value="Funcionário" style="rounded=0;whiteSpace=wrap;html=1;" parent="1" vertex="1">
          <mxGeometry x="230" y="360" width="120" height="60" as="geometry" />
        </mxCell>
        <mxCell id="iGtKDFYCZPcTqpnV3GEi-36" value="nome" style="ellipse;whiteSpace=wrap;html=1;rounded=0;" parent="1" vertex="1">
          <mxGeometry x="55" y="350" width="60" height="30" as="geometry" />
        </mxCell>
        <mxCell id="iGtKDFYCZPcTqpnV3GEi-38" value="&lt;u&gt;cod&lt;/u&gt;" style="ellipse;whiteSpace=wrap;html=1;rounded=0;" parent="1" vertex="1">
          <mxGeometry x="52.5" y="430" width="65" height="20" as="geometry" />
        </mxCell>
        <mxCell id="iGtKDFYCZPcTqpnV3GEi-42" value="cpf" style="ellipse;whiteSpace=wrap;html=1;rounded=0;" parent="1" vertex="1">
          <mxGeometry x="145" y="460" width="65" height="30" as="geometry" />
        </mxCell>
        <mxCell id="iGtKDFYCZPcTqpnV3GEi-44" value="endereço" style="ellipse;whiteSpace=wrap;html=1;rounded=0;" parent="1" vertex="1">
          <mxGeometry x="255" y="460" width="70" height="30" as="geometry" />
        </mxCell>
        <mxCell id="iGtKDFYCZPcTqpnV3GEi-46" value="Gerencia" style="rhombus;whiteSpace=wrap;html=1;" parent="1" vertex="1">
          <mxGeometry x="430" y="350" width="120" height="80" as="geometry" />
        </mxCell>
        <mxCell id="iGtKDFYCZPcTqpnV3GEi-47" value="" style="endArrow=none;html=1;rounded=0;exitX=1;exitY=1;exitDx=0;exitDy=0;entryX=0.5;entryY=1;entryDx=0;entryDy=0;" parent="1" source="iGtKDFYCZPcTqpnV3GEi-35" target="iGtKDFYCZPcTqpnV3GEi-46" edge="1">
          <mxGeometry width="50" height="50" relative="1" as="geometry">
            <mxPoint x="640" y="410" as="sourcePoint" />
            <mxPoint x="690" y="360" as="targetPoint" />
          </mxGeometry>
        </mxCell>
        <mxCell id="iGtKDFYCZPcTqpnV3GEi-48" value="" style="endArrow=none;html=1;rounded=0;entryX=0.5;entryY=0;entryDx=0;entryDy=0;exitX=1;exitY=0;exitDx=0;exitDy=0;" parent="1" source="iGtKDFYCZPcTqpnV3GEi-35" target="iGtKDFYCZPcTqpnV3GEi-46" edge="1">
          <mxGeometry width="50" height="50" relative="1" as="geometry">
            <mxPoint x="320" y="320" as="sourcePoint" />
            <mxPoint x="370" y="270" as="targetPoint" />
          </mxGeometry>
        </mxCell>
        <mxCell id="iGtKDFYCZPcTqpnV3GEi-49" value="N" style="text;html=1;strokeColor=none;fillColor=none;align=center;verticalAlign=middle;whiteSpace=wrap;rounded=0;" parent="1" vertex="1">
          <mxGeometry x="340" y="330" width="60" height="30" as="geometry" />
        </mxCell>
        <mxCell id="iGtKDFYCZPcTqpnV3GEi-50" value="1" style="text;html=1;strokeColor=none;fillColor=none;align=center;verticalAlign=middle;whiteSpace=wrap;rounded=0;" parent="1" vertex="1">
          <mxGeometry x="340" y="390" width="60" height="30" as="geometry" />
        </mxCell>
        <mxCell id="kqK2nwmcqiVlSpdfemAR-1" value="c)" style="text;html=1;strokeColor=none;fillColor=none;align=center;verticalAlign=middle;whiteSpace=wrap;rounded=0;" parent="1" vertex="1">
          <mxGeometry x="20" y="540" width="60" height="30" as="geometry" />
        </mxCell>
        <mxCell id="kqK2nwmcqiVlSpdfemAR-2" value="Aluno" style="rounded=0;whiteSpace=wrap;html=1;" parent="1" vertex="1">
          <mxGeometry x="230" y="620" width="120" height="60" as="geometry" />
        </mxCell>
        <mxCell id="kqK2nwmcqiVlSpdfemAR-3" value="A-P-D" style="rhombus;whiteSpace=wrap;html=1;" parent="1" vertex="1">
          <mxGeometry x="430" y="610" width="120" height="80" as="geometry" />
        </mxCell>
        <mxCell id="kqK2nwmcqiVlSpdfemAR-4" value="" style="endArrow=none;html=1;rounded=0;entryX=0;entryY=0.5;entryDx=0;entryDy=0;exitX=1;exitY=0.5;exitDx=0;exitDy=0;" parent="1" source="kqK2nwmcqiVlSpdfemAR-2" target="kqK2nwmcqiVlSpdfemAR-3" edge="1">
          <mxGeometry width="50" height="50" relative="1" as="geometry">
            <mxPoint x="350" y="650" as="sourcePoint" />
            <mxPoint x="400" y="600" as="targetPoint" />
          </mxGeometry>
        </mxCell>
        <mxCell id="kqK2nwmcqiVlSpdfemAR-5" value="Professor" style="rounded=0;whiteSpace=wrap;html=1;" parent="1" vertex="1">
          <mxGeometry x="630" y="620" width="120" height="60" as="geometry" />
        </mxCell>
        <mxCell id="kqK2nwmcqiVlSpdfemAR-6" value="" style="endArrow=none;html=1;rounded=0;exitX=1;exitY=0.5;exitDx=0;exitDy=0;entryX=0;entryY=0.5;entryDx=0;entryDy=0;" parent="1" source="kqK2nwmcqiVlSpdfemAR-3" target="kqK2nwmcqiVlSpdfemAR-5" edge="1">
          <mxGeometry width="50" height="50" relative="1" as="geometry">
            <mxPoint x="580" y="540" as="sourcePoint" />
            <mxPoint x="630" y="490" as="targetPoint" />
          </mxGeometry>
        </mxCell>
        <mxCell id="kqK2nwmcqiVlSpdfemAR-7" value="Disciplina" style="rounded=0;whiteSpace=wrap;html=1;" parent="1" vertex="1">
          <mxGeometry x="430" y="780" width="120" height="60" as="geometry" />
        </mxCell>
        <mxCell id="kqK2nwmcqiVlSpdfemAR-8" value="" style="endArrow=none;html=1;rounded=0;entryX=0.5;entryY=0;entryDx=0;entryDy=0;exitX=0.5;exitY=1;exitDx=0;exitDy=0;" parent="1" source="kqK2nwmcqiVlSpdfemAR-3" target="kqK2nwmcqiVlSpdfemAR-7" edge="1">
          <mxGeometry width="50" height="50" relative="1" as="geometry">
            <mxPoint x="450" y="730" as="sourcePoint" />
            <mxPoint x="530" y="730" as="targetPoint" />
          </mxGeometry>
        </mxCell>
        <mxCell id="kqK2nwmcqiVlSpdfemAR-9" value="" style="endArrow=none;html=1;rounded=0;exitX=0;exitY=0.5;exitDx=0;exitDy=0;entryX=1;entryY=0.5;entryDx=0;entryDy=0;" parent="1" source="kqK2nwmcqiVlSpdfemAR-2" target="kqK2nwmcqiVlSpdfemAR-10" edge="1">
          <mxGeometry width="50" height="50" relative="1" as="geometry">
            <mxPoint x="700" y="630" as="sourcePoint" />
            <mxPoint x="160" y="620" as="targetPoint" />
            <Array as="points">
              <mxPoint x="200" y="605" />
            </Array>
          </mxGeometry>
        </mxCell>
        <mxCell id="kqK2nwmcqiVlSpdfemAR-10" value="&lt;u&gt;ra&lt;/u&gt;" style="ellipse;whiteSpace=wrap;html=1;" parent="1" vertex="1">
          <mxGeometry x="55" y="590" width="65" height="30" as="geometry" />
        </mxCell>
        <mxCell id="kqK2nwmcqiVlSpdfemAR-11" value="nome" style="ellipse;whiteSpace=wrap;html=1;" parent="1" vertex="1">
          <mxGeometry x="52.5" y="635" width="65" height="30" as="geometry" />
        </mxCell>
        <mxCell id="kqK2nwmcqiVlSpdfemAR-14" value="telefone" style="ellipse;whiteSpace=wrap;html=1;" parent="1" vertex="1">
          <mxGeometry x="52.5" y="675" width="65" height="40" as="geometry" />
        </mxCell>
        <mxCell id="kqK2nwmcqiVlSpdfemAR-15" value="" style="endArrow=none;html=1;rounded=0;exitX=1;exitY=0.5;exitDx=0;exitDy=0;entryX=0;entryY=0.5;entryDx=0;entryDy=0;" parent="1" source="kqK2nwmcqiVlSpdfemAR-14" target="kqK2nwmcqiVlSpdfemAR-2" edge="1">
          <mxGeometry width="50" height="50" relative="1" as="geometry">
            <mxPoint x="150" y="770" as="sourcePoint" />
            <mxPoint x="200" y="720" as="targetPoint" />
            <Array as="points">
              <mxPoint x="200" y="695" />
            </Array>
          </mxGeometry>
        </mxCell>
        <mxCell id="kqK2nwmcqiVlSpdfemAR-16" value="&lt;u&gt;codigo&lt;/u&gt;" style="ellipse;whiteSpace=wrap;html=1;" parent="1" vertex="1">
          <mxGeometry x="365" y="880" width="65" height="30" as="geometry" />
        </mxCell>
        <mxCell id="kqK2nwmcqiVlSpdfemAR-17" value="nº de créditos" style="ellipse;whiteSpace=wrap;html=1;" parent="1" vertex="1">
          <mxGeometry x="457.5" y="880" width="65" height="30" as="geometry" />
        </mxCell>
        <mxCell id="kqK2nwmcqiVlSpdfemAR-18" value="descrição" style="ellipse;whiteSpace=wrap;html=1;" parent="1" vertex="1">
          <mxGeometry x="550" y="880" width="65" height="30" as="geometry" />
        </mxCell>
        <mxCell id="kqK2nwmcqiVlSpdfemAR-19" value="" style="endArrow=none;html=1;rounded=0;entryX=0.5;entryY=1;entryDx=0;entryDy=0;exitX=0.5;exitY=0;exitDx=0;exitDy=0;" parent="1" source="kqK2nwmcqiVlSpdfemAR-16" target="kqK2nwmcqiVlSpdfemAR-7" edge="1">
          <mxGeometry width="50" height="50" relative="1" as="geometry">
            <mxPoint x="350" y="770" as="sourcePoint" />
            <mxPoint x="400" y="720" as="targetPoint" />
            <Array as="points">
              <mxPoint x="398" y="860" />
            </Array>
          </mxGeometry>
        </mxCell>
        <mxCell id="kqK2nwmcqiVlSpdfemAR-20" value="" style="endArrow=none;html=1;rounded=0;entryX=0.5;entryY=1;entryDx=0;entryDy=0;exitX=0.5;exitY=0;exitDx=0;exitDy=0;" parent="1" source="kqK2nwmcqiVlSpdfemAR-17" target="kqK2nwmcqiVlSpdfemAR-7" edge="1">
          <mxGeometry width="50" height="50" relative="1" as="geometry">
            <mxPoint x="490" y="1070" as="sourcePoint" />
            <mxPoint x="540" y="1020" as="targetPoint" />
          </mxGeometry>
        </mxCell>
        <mxCell id="kqK2nwmcqiVlSpdfemAR-21" value="" style="endArrow=none;html=1;rounded=0;exitX=0.5;exitY=0;exitDx=0;exitDy=0;" parent="1" source="kqK2nwmcqiVlSpdfemAR-18" edge="1">
          <mxGeometry width="50" height="50" relative="1" as="geometry">
            <mxPoint x="430" y="1030" as="sourcePoint" />
            <mxPoint x="490" y="840" as="targetPoint" />
            <Array as="points">
              <mxPoint x="583" y="860" />
            </Array>
          </mxGeometry>
        </mxCell>
        <mxCell id="kqK2nwmcqiVlSpdfemAR-22" value="&lt;u&gt;codigo&lt;/u&gt;" style="ellipse;whiteSpace=wrap;html=1;" parent="1" vertex="1">
          <mxGeometry x="860" y="590" width="65" height="30" as="geometry" />
        </mxCell>
        <mxCell id="kqK2nwmcqiVlSpdfemAR-23" value="" style="endArrow=none;html=1;rounded=0;exitX=1;exitY=0.5;exitDx=0;exitDy=0;" parent="1" source="kqK2nwmcqiVlSpdfemAR-11" edge="1">
          <mxGeometry width="50" height="50" relative="1" as="geometry">
            <mxPoint x="150" y="670" as="sourcePoint" />
            <mxPoint x="230" y="650" as="targetPoint" />
          </mxGeometry>
        </mxCell>
        <mxCell id="kqK2nwmcqiVlSpdfemAR-24" value="nome" style="ellipse;whiteSpace=wrap;html=1;" parent="1" vertex="1">
          <mxGeometry x="860" y="635" width="65" height="30" as="geometry" />
        </mxCell>
        <mxCell id="kqK2nwmcqiVlSpdfemAR-25" value="telefone" style="ellipse;whiteSpace=wrap;html=1;" parent="1" vertex="1">
          <mxGeometry x="860" y="680" width="65" height="30" as="geometry" />
        </mxCell>
        <mxCell id="kqK2nwmcqiVlSpdfemAR-26" value="" style="endArrow=none;html=1;rounded=0;exitX=1;exitY=0.5;exitDx=0;exitDy=0;entryX=0;entryY=0.5;entryDx=0;entryDy=0;" parent="1" source="kqK2nwmcqiVlSpdfemAR-5" target="kqK2nwmcqiVlSpdfemAR-22" edge="1">
          <mxGeometry width="50" height="50" relative="1" as="geometry">
            <mxPoint x="780" y="530" as="sourcePoint" />
            <mxPoint x="830" y="480" as="targetPoint" />
            <Array as="points">
              <mxPoint x="800" y="605" />
            </Array>
          </mxGeometry>
        </mxCell>
        <mxCell id="kqK2nwmcqiVlSpdfemAR-27" value="" style="endArrow=none;html=1;rounded=0;entryX=0;entryY=0.5;entryDx=0;entryDy=0;exitX=1;exitY=0.5;exitDx=0;exitDy=0;" parent="1" source="kqK2nwmcqiVlSpdfemAR-5" target="kqK2nwmcqiVlSpdfemAR-24" edge="1">
          <mxGeometry width="50" height="50" relative="1" as="geometry">
            <mxPoint x="740" y="760" as="sourcePoint" />
            <mxPoint x="790" y="710" as="targetPoint" />
          </mxGeometry>
        </mxCell>
        <mxCell id="kqK2nwmcqiVlSpdfemAR-28" value="" style="endArrow=none;html=1;rounded=0;entryX=0;entryY=0.5;entryDx=0;entryDy=0;exitX=1;exitY=0.5;exitDx=0;exitDy=0;" parent="1" source="kqK2nwmcqiVlSpdfemAR-5" target="kqK2nwmcqiVlSpdfemAR-25" edge="1">
          <mxGeometry width="50" height="50" relative="1" as="geometry">
            <mxPoint x="760" y="740" as="sourcePoint" />
            <mxPoint x="810" y="690" as="targetPoint" />
            <Array as="points">
              <mxPoint x="800" y="695" />
            </Array>
          </mxGeometry>
        </mxCell>
        <mxCell id="kqK2nwmcqiVlSpdfemAR-29" value="N" style="text;html=1;strokeColor=none;fillColor=none;align=center;verticalAlign=middle;whiteSpace=wrap;rounded=0;" parent="1" vertex="1">
          <mxGeometry x="480" y="750" width="60" height="30" as="geometry" />
        </mxCell>
        <mxCell id="kqK2nwmcqiVlSpdfemAR-30" value="N" style="text;html=1;strokeColor=none;fillColor=none;align=center;verticalAlign=middle;whiteSpace=wrap;rounded=0;" parent="1" vertex="1">
          <mxGeometry x="340" y="620" width="60" height="30" as="geometry" />
        </mxCell>
        <mxCell id="kqK2nwmcqiVlSpdfemAR-31" value="1" style="text;html=1;strokeColor=none;fillColor=none;align=center;verticalAlign=middle;whiteSpace=wrap;rounded=0;" parent="1" vertex="1">
          <mxGeometry x="580" y="620" width="60" height="30" as="geometry" />
        </mxCell>
        <mxCell id="6r2WZ8PpIS0mDq38cCXN-1" value="d)" style="text;html=1;strokeColor=none;fillColor=none;align=center;verticalAlign=middle;whiteSpace=wrap;rounded=0;" parent="1" vertex="1">
          <mxGeometry x="20" y="940" width="60" height="30" as="geometry" />
        </mxCell>
        <mxCell id="6r2WZ8PpIS0mDq38cCXN-2" value="Cliente" style="rounded=0;whiteSpace=wrap;html=1;" parent="1" vertex="1">
          <mxGeometry x="230" y="1065" width="120" height="60" as="geometry" />
        </mxCell>
        <mxCell id="6r2WZ8PpIS0mDq38cCXN-4" value="Quarto" style="rounded=0;whiteSpace=wrap;html=1;" parent="1" vertex="1">
          <mxGeometry x="630" y="1065" width="120" height="60" as="geometry" />
        </mxCell>
        <mxCell id="6r2WZ8PpIS0mDq38cCXN-5" value="" style="endArrow=none;html=1;rounded=0;exitX=1;exitY=0.5;exitDx=0;exitDy=0;entryX=0;entryY=0.5;entryDx=0;entryDy=0;" parent="1" source="6r2WZ8PpIS0mDq38cCXN-2" target="6r2WZ8PpIS0mDq38cCXN-30" edge="1">
          <mxGeometry width="50" height="50" relative="1" as="geometry">
            <mxPoint x="390" y="1045" as="sourcePoint" />
            <mxPoint x="450" y="1095" as="targetPoint" />
          </mxGeometry>
        </mxCell>
        <mxCell id="6r2WZ8PpIS0mDq38cCXN-7" value="nome" style="ellipse;whiteSpace=wrap;html=1;" parent="1" vertex="1">
          <mxGeometry x="52.5" y="1010" width="65" height="30" as="geometry" />
        </mxCell>
        <mxCell id="6r2WZ8PpIS0mDq38cCXN-8" value="rg" style="ellipse;whiteSpace=wrap;html=1;" parent="1" vertex="1">
          <mxGeometry x="52.5" y="1055" width="65" height="30" as="geometry" />
        </mxCell>
        <mxCell id="6r2WZ8PpIS0mDq38cCXN-9" value="endereço" style="ellipse;whiteSpace=wrap;html=1;" parent="1" vertex="1">
          <mxGeometry x="52.5" y="1105" width="65" height="30" as="geometry" />
        </mxCell>
        <mxCell id="6r2WZ8PpIS0mDq38cCXN-10" value="telefone" style="ellipse;whiteSpace=wrap;html=1;" parent="1" vertex="1">
          <mxGeometry x="52.5" y="1150" width="65" height="30" as="geometry" />
        </mxCell>
        <mxCell id="6r2WZ8PpIS0mDq38cCXN-13" value="" style="endArrow=none;html=1;rounded=0;exitX=1;exitY=0.5;exitDx=0;exitDy=0;entryX=0;entryY=0.5;entryDx=0;entryDy=0;" parent="1" source="6r2WZ8PpIS0mDq38cCXN-7" target="6r2WZ8PpIS0mDq38cCXN-2" edge="1">
          <mxGeometry width="50" height="50" relative="1" as="geometry">
            <mxPoint x="210" y="1020" as="sourcePoint" />
            <mxPoint x="260" y="970" as="targetPoint" />
            <Array as="points">
              <mxPoint x="200" y="1025" />
            </Array>
          </mxGeometry>
        </mxCell>
        <mxCell id="6r2WZ8PpIS0mDq38cCXN-14" value="" style="endArrow=none;html=1;rounded=0;exitX=1;exitY=0.5;exitDx=0;exitDy=0;entryX=0;entryY=0.5;entryDx=0;entryDy=0;" parent="1" source="6r2WZ8PpIS0mDq38cCXN-8" target="6r2WZ8PpIS0mDq38cCXN-2" edge="1">
          <mxGeometry width="50" height="50" relative="1" as="geometry">
            <mxPoint x="150" y="1190" as="sourcePoint" />
            <mxPoint x="200" y="1140" as="targetPoint" />
            <Array as="points">
              <mxPoint x="200" y="1070" />
            </Array>
          </mxGeometry>
        </mxCell>
        <mxCell id="6r2WZ8PpIS0mDq38cCXN-15" value="" style="endArrow=none;html=1;rounded=0;exitX=1;exitY=0.5;exitDx=0;exitDy=0;entryX=0;entryY=0.5;entryDx=0;entryDy=0;" parent="1" source="6r2WZ8PpIS0mDq38cCXN-9" target="6r2WZ8PpIS0mDq38cCXN-2" edge="1">
          <mxGeometry width="50" height="50" relative="1" as="geometry">
            <mxPoint x="180" y="1140" as="sourcePoint" />
            <mxPoint x="230" y="1090" as="targetPoint" />
            <Array as="points">
              <mxPoint x="200" y="1120" />
            </Array>
          </mxGeometry>
        </mxCell>
        <mxCell id="6r2WZ8PpIS0mDq38cCXN-16" value="" style="endArrow=none;html=1;rounded=0;entryX=0;entryY=0.5;entryDx=0;entryDy=0;exitX=1;exitY=0.5;exitDx=0;exitDy=0;" parent="1" source="6r2WZ8PpIS0mDq38cCXN-10" target="6r2WZ8PpIS0mDq38cCXN-2" edge="1">
          <mxGeometry width="50" height="50" relative="1" as="geometry">
            <mxPoint x="160" y="1160" as="sourcePoint" />
            <mxPoint x="210" y="1110" as="targetPoint" />
            <Array as="points">
              <mxPoint x="200" y="1165" />
            </Array>
          </mxGeometry>
        </mxCell>
        <mxCell id="6r2WZ8PpIS0mDq38cCXN-17" value="&lt;u&gt;numero&lt;/u&gt;" style="ellipse;whiteSpace=wrap;html=1;" parent="1" vertex="1">
          <mxGeometry x="860" y="1035" width="65" height="30" as="geometry" />
        </mxCell>
        <mxCell id="6r2WZ8PpIS0mDq38cCXN-18" value="andar" style="ellipse;whiteSpace=wrap;html=1;" parent="1" vertex="1">
          <mxGeometry x="860" y="1080" width="65" height="30" as="geometry" />
        </mxCell>
        <mxCell id="6r2WZ8PpIS0mDq38cCXN-19" value="qtdLeitos" style="ellipse;whiteSpace=wrap;html=1;" parent="1" vertex="1">
          <mxGeometry x="860" y="1120" width="65" height="30" as="geometry" />
        </mxCell>
        <mxCell id="6r2WZ8PpIS0mDq38cCXN-21" value="" style="endArrow=none;html=1;rounded=0;entryX=0;entryY=0.5;entryDx=0;entryDy=0;exitX=1;exitY=0.5;exitDx=0;exitDy=0;" parent="1" source="6r2WZ8PpIS0mDq38cCXN-4" target="6r2WZ8PpIS0mDq38cCXN-17" edge="1">
          <mxGeometry width="50" height="50" relative="1" as="geometry">
            <mxPoint x="780" y="1070" as="sourcePoint" />
            <mxPoint x="830" y="1020" as="targetPoint" />
            <Array as="points">
              <mxPoint x="790" y="1050" />
            </Array>
          </mxGeometry>
        </mxCell>
        <mxCell id="6r2WZ8PpIS0mDq38cCXN-23" value="" style="endArrow=none;html=1;rounded=0;entryX=0;entryY=0.5;entryDx=0;entryDy=0;exitX=1;exitY=0.5;exitDx=0;exitDy=0;" parent="1" source="6r2WZ8PpIS0mDq38cCXN-4" target="6r2WZ8PpIS0mDq38cCXN-19" edge="1">
          <mxGeometry width="50" height="50" relative="1" as="geometry">
            <mxPoint x="710" y="1135" as="sourcePoint" />
            <mxPoint x="760" y="1085" as="targetPoint" />
            <Array as="points">
              <mxPoint x="790" y="1135" />
            </Array>
          </mxGeometry>
        </mxCell>
        <mxCell id="6r2WZ8PpIS0mDq38cCXN-25" value="" style="endArrow=none;html=1;rounded=0;exitX=1;exitY=0.5;exitDx=0;exitDy=0;entryX=0;entryY=0.5;entryDx=0;entryDy=0;" parent="1" source="6r2WZ8PpIS0mDq38cCXN-4" target="6r2WZ8PpIS0mDq38cCXN-18" edge="1">
          <mxGeometry width="50" height="50" relative="1" as="geometry">
            <mxPoint x="800" y="1110" as="sourcePoint" />
            <mxPoint x="850" y="1060" as="targetPoint" />
          </mxGeometry>
        </mxCell>
        <mxCell id="6r2WZ8PpIS0mDq38cCXN-29" value="" style="endArrow=none;html=1;rounded=0;exitX=1;exitY=0.5;exitDx=0;exitDy=0;entryX=0;entryY=0.5;entryDx=0;entryDy=0;" parent="1" source="6r2WZ8PpIS0mDq38cCXN-30" target="6r2WZ8PpIS0mDq38cCXN-4" edge="1">
          <mxGeometry width="50" height="50" relative="1" as="geometry">
            <mxPoint x="530" y="1095" as="sourcePoint" />
            <mxPoint x="630" y="1095" as="targetPoint" />
          </mxGeometry>
        </mxCell>
        <mxCell id="6r2WZ8PpIS0mDq38cCXN-30" value="hospeda" style="rhombus;whiteSpace=wrap;html=1;" parent="1" vertex="1">
          <mxGeometry x="430" y="1055" width="120" height="80" as="geometry" />
        </mxCell>
        <mxCell id="6r2WZ8PpIS0mDq38cCXN-32" value="data" style="ellipse;whiteSpace=wrap;html=1;" parent="1" vertex="1">
          <mxGeometry x="365" y="1160" width="65" height="30" as="geometry" />
        </mxCell>
        <mxCell id="6r2WZ8PpIS0mDq38cCXN-33" value="consumo" style="ellipse;whiteSpace=wrap;html=1;" parent="1" vertex="1">
          <mxGeometry x="550" y="1160" width="65" height="30" as="geometry" />
        </mxCell>
        <mxCell id="6r2WZ8PpIS0mDq38cCXN-35" value="" style="endArrow=none;html=1;rounded=0;entryX=0;entryY=1;entryDx=0;entryDy=0;exitX=0.5;exitY=0;exitDx=0;exitDy=0;" parent="1" source="6r2WZ8PpIS0mDq38cCXN-32" target="6r2WZ8PpIS0mDq38cCXN-30" edge="1">
          <mxGeometry width="50" height="50" relative="1" as="geometry">
            <mxPoint x="410" y="1180" as="sourcePoint" />
            <mxPoint x="460" y="1130" as="targetPoint" />
          </mxGeometry>
        </mxCell>
        <mxCell id="6r2WZ8PpIS0mDq38cCXN-36" value="" style="endArrow=none;html=1;rounded=0;entryX=0.5;entryY=0;entryDx=0;entryDy=0;" parent="1" source="6r2WZ8PpIS0mDq38cCXN-30" target="6r2WZ8PpIS0mDq38cCXN-33" edge="1">
          <mxGeometry width="50" height="50" relative="1" as="geometry">
            <mxPoint x="550" y="1170" as="sourcePoint" />
            <mxPoint x="600" y="1120" as="targetPoint" />
          </mxGeometry>
        </mxCell>
        <mxCell id="6r2WZ8PpIS0mDq38cCXN-37" value="codigo" style="ellipse;whiteSpace=wrap;html=1;fontStyle=4" parent="1" vertex="1">
          <mxGeometry x="257.5" y="1010" width="65" height="30" as="geometry" />
        </mxCell>
        <mxCell id="6r2WZ8PpIS0mDq38cCXN-38" value="" style="endArrow=none;html=1;rounded=0;exitX=0.5;exitY=0;exitDx=0;exitDy=0;entryX=0.5;entryY=1;entryDx=0;entryDy=0;" parent="1" source="6r2WZ8PpIS0mDq38cCXN-2" target="6r2WZ8PpIS0mDq38cCXN-37" edge="1">
          <mxGeometry width="50" height="50" relative="1" as="geometry">
            <mxPoint x="190" y="930" as="sourcePoint" />
            <mxPoint x="240" y="880" as="targetPoint" />
          </mxGeometry>
        </mxCell>
        <mxCell id="UnsMsZChyFch0J1aEtPe-2" value="e)" style="text;html=1;strokeColor=none;fillColor=none;align=center;verticalAlign=middle;whiteSpace=wrap;rounded=0;" vertex="1" parent="1">
          <mxGeometry x="20" y="1250" width="60" height="30" as="geometry" />
        </mxCell>
        <mxCell id="UnsMsZChyFch0J1aEtPe-3" value="Caminhões" style="whiteSpace=wrap;html=1;align=center;" vertex="1" parent="1">
          <mxGeometry x="255" y="1380" width="100" height="40" as="geometry" />
        </mxCell>
        <mxCell id="UnsMsZChyFch0J1aEtPe-4" value="Viaja" style="shape=rhombus;perimeter=rhombusPerimeter;whiteSpace=wrap;html=1;align=center;" vertex="1" parent="1">
          <mxGeometry x="445" y="1370" width="120" height="60" as="geometry" />
        </mxCell>
        <mxCell id="UnsMsZChyFch0J1aEtPe-7" value="Motorista" style="whiteSpace=wrap;html=1;align=center;" vertex="1" parent="1">
          <mxGeometry x="655" y="1380" width="100" height="40" as="geometry" />
        </mxCell>
        <mxCell id="UnsMsZChyFch0J1aEtPe-8" value="marca" style="ellipse;whiteSpace=wrap;html=1;align=center;" vertex="1" parent="1">
          <mxGeometry x="35" y="1310" width="100" height="40" as="geometry" />
        </mxCell>
        <mxCell id="UnsMsZChyFch0J1aEtPe-9" value="modelo" style="ellipse;whiteSpace=wrap;html=1;align=center;" vertex="1" parent="1">
          <mxGeometry x="35" y="1360" width="100" height="40" as="geometry" />
        </mxCell>
        <mxCell id="UnsMsZChyFch0J1aEtPe-10" value="ano" style="ellipse;whiteSpace=wrap;html=1;align=center;" vertex="1" parent="1">
          <mxGeometry x="35" y="1411.77" width="100" height="40" as="geometry" />
        </mxCell>
        <mxCell id="UnsMsZChyFch0J1aEtPe-11" value="capacidade" style="ellipse;whiteSpace=wrap;html=1;align=center;" vertex="1" parent="1">
          <mxGeometry x="37.5" y="1460" width="100" height="40" as="geometry" />
        </mxCell>
        <mxCell id="UnsMsZChyFch0J1aEtPe-12" value="" style="endArrow=none;html=1;rounded=0;exitX=1;exitY=0.5;exitDx=0;exitDy=0;entryX=0;entryY=0.5;entryDx=0;entryDy=0;" edge="1" parent="1" source="UnsMsZChyFch0J1aEtPe-8" target="UnsMsZChyFch0J1aEtPe-3">
          <mxGeometry width="50" height="50" relative="1" as="geometry">
            <mxPoint x="200" y="1310" as="sourcePoint" />
            <mxPoint x="250" y="1400" as="targetPoint" />
            <Array as="points">
              <mxPoint x="200" y="1330" />
            </Array>
          </mxGeometry>
        </mxCell>
        <mxCell id="UnsMsZChyFch0J1aEtPe-13" value="" style="endArrow=none;html=1;rounded=0;exitX=1;exitY=0.5;exitDx=0;exitDy=0;entryX=0;entryY=0.5;entryDx=0;entryDy=0;" edge="1" parent="1" source="UnsMsZChyFch0J1aEtPe-9" target="UnsMsZChyFch0J1aEtPe-3">
          <mxGeometry width="50" height="50" relative="1" as="geometry">
            <mxPoint x="200" y="1510" as="sourcePoint" />
            <mxPoint x="250" y="1460" as="targetPoint" />
            <Array as="points">
              <mxPoint x="200" y="1380" />
            </Array>
          </mxGeometry>
        </mxCell>
        <mxCell id="UnsMsZChyFch0J1aEtPe-14" value="" style="endArrow=none;html=1;rounded=0;exitX=1;exitY=0.5;exitDx=0;exitDy=0;entryX=0;entryY=0.5;entryDx=0;entryDy=0;" edge="1" parent="1" source="UnsMsZChyFch0J1aEtPe-10" target="UnsMsZChyFch0J1aEtPe-3">
          <mxGeometry width="50" height="50" relative="1" as="geometry">
            <mxPoint x="210" y="1530" as="sourcePoint" />
            <mxPoint x="260" y="1480" as="targetPoint" />
            <Array as="points">
              <mxPoint x="200" y="1432" />
            </Array>
          </mxGeometry>
        </mxCell>
        <mxCell id="UnsMsZChyFch0J1aEtPe-15" value="" style="endArrow=none;html=1;rounded=0;exitX=1;exitY=0.5;exitDx=0;exitDy=0;entryX=0;entryY=0.5;entryDx=0;entryDy=0;" edge="1" parent="1" source="UnsMsZChyFch0J1aEtPe-11" target="UnsMsZChyFch0J1aEtPe-3">
          <mxGeometry width="50" height="50" relative="1" as="geometry">
            <mxPoint x="210" y="1510" as="sourcePoint" />
            <mxPoint x="260" y="1460" as="targetPoint" />
            <Array as="points">
              <mxPoint x="200" y="1480" />
            </Array>
          </mxGeometry>
        </mxCell>
        <mxCell id="UnsMsZChyFch0J1aEtPe-18" value="" style="endArrow=none;html=1;rounded=0;exitX=0.5;exitY=0;exitDx=0;exitDy=0;entryX=0.5;entryY=1;entryDx=0;entryDy=0;" edge="1" parent="1" source="UnsMsZChyFch0J1aEtPe-3" target="UnsMsZChyFch0J1aEtPe-29">
          <mxGeometry width="50" height="50" relative="1" as="geometry">
            <mxPoint x="220" y="1270" as="sourcePoint" />
            <mxPoint x="305" y="1350" as="targetPoint" />
          </mxGeometry>
        </mxCell>
        <mxCell id="UnsMsZChyFch0J1aEtPe-19" value="" style="endArrow=none;html=1;rounded=0;exitX=0;exitY=0.5;exitDx=0;exitDy=0;entryX=1;entryY=0.5;entryDx=0;entryDy=0;" edge="1" parent="1" source="UnsMsZChyFch0J1aEtPe-4" target="UnsMsZChyFch0J1aEtPe-3">
          <mxGeometry relative="1" as="geometry">
            <mxPoint x="290" y="1530" as="sourcePoint" />
            <mxPoint x="180" y="1530" as="targetPoint" />
          </mxGeometry>
        </mxCell>
        <mxCell id="UnsMsZChyFch0J1aEtPe-22" value="nome" style="ellipse;whiteSpace=wrap;html=1;align=center;" vertex="1" parent="1">
          <mxGeometry x="885" y="1310" width="100" height="40" as="geometry" />
        </mxCell>
        <mxCell id="UnsMsZChyFch0J1aEtPe-23" value="idade" style="ellipse;whiteSpace=wrap;html=1;align=center;" vertex="1" parent="1">
          <mxGeometry x="885" y="1360" width="100" height="40" as="geometry" />
        </mxCell>
        <mxCell id="UnsMsZChyFch0J1aEtPe-24" value="endereço" style="ellipse;whiteSpace=wrap;html=1;align=center;" vertex="1" parent="1">
          <mxGeometry x="885" y="1411.77" width="100" height="40" as="geometry" />
        </mxCell>
        <mxCell id="UnsMsZChyFch0J1aEtPe-25" value="nome" style="ellipse;whiteSpace=wrap;html=1;align=center;" vertex="1" parent="1">
          <mxGeometry x="885" y="1460" width="100" height="40" as="geometry" />
        </mxCell>
        <mxCell id="UnsMsZChyFch0J1aEtPe-28" value="Produto" style="whiteSpace=wrap;html=1;align=center;" vertex="1" parent="1">
          <mxGeometry x="255" y="1600" width="100" height="40" as="geometry" />
        </mxCell>
        <mxCell id="UnsMsZChyFch0J1aEtPe-29" value="codigo" style="ellipse;whiteSpace=wrap;html=1;align=center;fontStyle=4;" vertex="1" parent="1">
          <mxGeometry x="255" y="1310" width="100" height="40" as="geometry" />
        </mxCell>
        <mxCell id="UnsMsZChyFch0J1aEtPe-30" value="rg" style="ellipse;whiteSpace=wrap;html=1;align=center;fontStyle=4;" vertex="1" parent="1">
          <mxGeometry x="655" y="1310" width="100" height="40" as="geometry" />
        </mxCell>
        <mxCell id="UnsMsZChyFch0J1aEtPe-31" value="codigo" style="ellipse;whiteSpace=wrap;html=1;align=center;fontStyle=4;" vertex="1" parent="1">
          <mxGeometry x="75" y="1720" width="100" height="40" as="geometry" />
        </mxCell>
        <mxCell id="UnsMsZChyFch0J1aEtPe-32" value="nome" style="ellipse;whiteSpace=wrap;html=1;align=center;" vertex="1" parent="1">
          <mxGeometry x="315" y="1720" width="100" height="40" as="geometry" />
        </mxCell>
        <mxCell id="UnsMsZChyFch0J1aEtPe-33" value="marca" style="ellipse;whiteSpace=wrap;html=1;align=center;" vertex="1" parent="1">
          <mxGeometry x="435" y="1720" width="100" height="40" as="geometry" />
        </mxCell>
        <mxCell id="UnsMsZChyFch0J1aEtPe-34" value="fabricante" style="ellipse;whiteSpace=wrap;html=1;align=center;" vertex="1" parent="1">
          <mxGeometry x="195" y="1720" width="100" height="40" as="geometry" />
        </mxCell>
        <mxCell id="UnsMsZChyFch0J1aEtPe-36" value="Transporta" style="shape=rhombus;perimeter=rhombusPerimeter;whiteSpace=wrap;html=1;align=center;" vertex="1" parent="1">
          <mxGeometry x="245" y="1480" width="120" height="60" as="geometry" />
        </mxCell>
        <mxCell id="UnsMsZChyFch0J1aEtPe-37" value="" style="endArrow=none;html=1;rounded=0;entryX=0.5;entryY=1;entryDx=0;entryDy=0;" edge="1" parent="1" source="UnsMsZChyFch0J1aEtPe-36" target="UnsMsZChyFch0J1aEtPe-3">
          <mxGeometry width="50" height="50" relative="1" as="geometry">
            <mxPoint x="250" y="1580" as="sourcePoint" />
            <mxPoint x="300" y="1530" as="targetPoint" />
          </mxGeometry>
        </mxCell>
        <mxCell id="UnsMsZChyFch0J1aEtPe-38" value="" style="endArrow=none;html=1;rounded=0;entryX=0.5;entryY=1;entryDx=0;entryDy=0;exitX=0.5;exitY=0;exitDx=0;exitDy=0;" edge="1" parent="1" source="UnsMsZChyFch0J1aEtPe-28" target="UnsMsZChyFch0J1aEtPe-36">
          <mxGeometry width="50" height="50" relative="1" as="geometry">
            <mxPoint x="200" y="1590" as="sourcePoint" />
            <mxPoint x="250" y="1540" as="targetPoint" />
          </mxGeometry>
        </mxCell>
        <mxCell id="UnsMsZChyFch0J1aEtPe-39" value="" style="endArrow=none;html=1;rounded=0;entryX=0.5;entryY=1;entryDx=0;entryDy=0;exitX=0.5;exitY=0;exitDx=0;exitDy=0;" edge="1" parent="1" source="UnsMsZChyFch0J1aEtPe-31" target="UnsMsZChyFch0J1aEtPe-28">
          <mxGeometry width="50" height="50" relative="1" as="geometry">
            <mxPoint x="160" y="1680" as="sourcePoint" />
            <mxPoint x="210" y="1630" as="targetPoint" />
            <Array as="points">
              <mxPoint x="125" y="1680" />
            </Array>
          </mxGeometry>
        </mxCell>
        <mxCell id="UnsMsZChyFch0J1aEtPe-40" value="" style="endArrow=none;html=1;rounded=0;entryX=0.5;entryY=1;entryDx=0;entryDy=0;exitX=0.5;exitY=0;exitDx=0;exitDy=0;" edge="1" parent="1" source="UnsMsZChyFch0J1aEtPe-34" target="UnsMsZChyFch0J1aEtPe-28">
          <mxGeometry width="50" height="50" relative="1" as="geometry">
            <mxPoint x="330" y="1710" as="sourcePoint" />
            <mxPoint x="380" y="1660" as="targetPoint" />
            <Array as="points">
              <mxPoint x="245" y="1680" />
            </Array>
          </mxGeometry>
        </mxCell>
        <mxCell id="UnsMsZChyFch0J1aEtPe-41" value="" style="endArrow=none;html=1;rounded=0;exitX=0.5;exitY=1;exitDx=0;exitDy=0;entryX=0.5;entryY=0;entryDx=0;entryDy=0;" edge="1" parent="1" source="UnsMsZChyFch0J1aEtPe-28" target="UnsMsZChyFch0J1aEtPe-32">
          <mxGeometry width="50" height="50" relative="1" as="geometry">
            <mxPoint x="390" y="1700" as="sourcePoint" />
            <mxPoint x="440" y="1650" as="targetPoint" />
            <Array as="points">
              <mxPoint x="365" y="1680" />
            </Array>
          </mxGeometry>
        </mxCell>
        <mxCell id="UnsMsZChyFch0J1aEtPe-42" value="" style="endArrow=none;html=1;rounded=0;exitX=0.5;exitY=1;exitDx=0;exitDy=0;entryX=0.5;entryY=0;entryDx=0;entryDy=0;" edge="1" parent="1" source="UnsMsZChyFch0J1aEtPe-28" target="UnsMsZChyFch0J1aEtPe-33">
          <mxGeometry width="50" height="50" relative="1" as="geometry">
            <mxPoint x="440" y="1700" as="sourcePoint" />
            <mxPoint x="490" y="1650" as="targetPoint" />
            <Array as="points">
              <mxPoint x="485" y="1680" />
            </Array>
          </mxGeometry>
        </mxCell>
        <mxCell id="UnsMsZChyFch0J1aEtPe-44" value="" style="endArrow=none;html=1;rounded=0;exitX=1;exitY=0.5;exitDx=0;exitDy=0;entryX=0;entryY=0.5;entryDx=0;entryDy=0;" edge="1" parent="1" source="UnsMsZChyFch0J1aEtPe-4" target="UnsMsZChyFch0J1aEtPe-7">
          <mxGeometry relative="1" as="geometry">
            <mxPoint x="655" y="1459" as="sourcePoint" />
            <mxPoint x="565" y="1459" as="targetPoint" />
          </mxGeometry>
        </mxCell>
        <mxCell id="UnsMsZChyFch0J1aEtPe-45" value="N" style="resizable=0;html=1;whiteSpace=wrap;align=right;verticalAlign=bottom;" connectable="0" vertex="1" parent="UnsMsZChyFch0J1aEtPe-44">
          <mxGeometry x="1" relative="1" as="geometry">
            <mxPoint as="offset" />
          </mxGeometry>
        </mxCell>
        <mxCell id="UnsMsZChyFch0J1aEtPe-46" value="" style="endArrow=none;html=1;rounded=0;entryX=0.5;entryY=1;entryDx=0;entryDy=0;exitX=0.5;exitY=0;exitDx=0;exitDy=0;" edge="1" parent="1" source="UnsMsZChyFch0J1aEtPe-7" target="UnsMsZChyFch0J1aEtPe-30">
          <mxGeometry width="50" height="50" relative="1" as="geometry">
            <mxPoint x="630" y="1520" as="sourcePoint" />
            <mxPoint x="680" y="1470" as="targetPoint" />
          </mxGeometry>
        </mxCell>
        <mxCell id="UnsMsZChyFch0J1aEtPe-47" value="" style="endArrow=none;html=1;rounded=0;entryX=0;entryY=0.5;entryDx=0;entryDy=0;exitX=1;exitY=0.5;exitDx=0;exitDy=0;" edge="1" parent="1" source="UnsMsZChyFch0J1aEtPe-7" target="UnsMsZChyFch0J1aEtPe-22">
          <mxGeometry width="50" height="50" relative="1" as="geometry">
            <mxPoint x="700" y="1550" as="sourcePoint" />
            <mxPoint x="750" y="1500" as="targetPoint" />
            <Array as="points">
              <mxPoint x="830" y="1330" />
            </Array>
          </mxGeometry>
        </mxCell>
        <mxCell id="UnsMsZChyFch0J1aEtPe-48" value="" style="endArrow=none;html=1;rounded=0;entryX=0;entryY=0.5;entryDx=0;entryDy=0;exitX=1;exitY=0.5;exitDx=0;exitDy=0;" edge="1" parent="1" source="UnsMsZChyFch0J1aEtPe-7" target="UnsMsZChyFch0J1aEtPe-25">
          <mxGeometry width="50" height="50" relative="1" as="geometry">
            <mxPoint x="770" y="1460" as="sourcePoint" />
            <mxPoint x="895" y="1340" as="targetPoint" />
            <Array as="points">
              <mxPoint x="830" y="1480" />
            </Array>
          </mxGeometry>
        </mxCell>
        <mxCell id="UnsMsZChyFch0J1aEtPe-49" value="" style="endArrow=none;html=1;rounded=0;entryX=0;entryY=0.5;entryDx=0;entryDy=0;exitX=1;exitY=0.5;exitDx=0;exitDy=0;" edge="1" parent="1" source="UnsMsZChyFch0J1aEtPe-7" target="UnsMsZChyFch0J1aEtPe-23">
          <mxGeometry width="50" height="50" relative="1" as="geometry">
            <mxPoint x="775" y="1420" as="sourcePoint" />
            <mxPoint x="905" y="1350" as="targetPoint" />
            <Array as="points">
              <mxPoint x="830" y="1380" />
            </Array>
          </mxGeometry>
        </mxCell>
        <mxCell id="UnsMsZChyFch0J1aEtPe-50" value="" style="endArrow=none;html=1;rounded=0;entryX=0;entryY=0.5;entryDx=0;entryDy=0;exitX=1;exitY=0.5;exitDx=0;exitDy=0;" edge="1" parent="1" source="UnsMsZChyFch0J1aEtPe-7" target="UnsMsZChyFch0J1aEtPe-24">
          <mxGeometry width="50" height="50" relative="1" as="geometry">
            <mxPoint x="785" y="1430" as="sourcePoint" />
            <mxPoint x="915" y="1360" as="targetPoint" />
            <Array as="points">
              <mxPoint x="830" y="1432" />
            </Array>
          </mxGeometry>
        </mxCell>
        <mxCell id="UnsMsZChyFch0J1aEtPe-51" value="data viagem" style="ellipse;whiteSpace=wrap;html=1;align=center;" vertex="1" parent="1">
          <mxGeometry x="455" y="1310" width="100" height="40" as="geometry" />
        </mxCell>
        <mxCell id="UnsMsZChyFch0J1aEtPe-52" value="" style="endArrow=none;html=1;rounded=0;entryX=0.5;entryY=1;entryDx=0;entryDy=0;exitX=0.5;exitY=0;exitDx=0;exitDy=0;" edge="1" parent="1" source="UnsMsZChyFch0J1aEtPe-4" target="UnsMsZChyFch0J1aEtPe-51">
          <mxGeometry width="50" height="50" relative="1" as="geometry">
            <mxPoint x="480" y="1540" as="sourcePoint" />
            <mxPoint x="530" y="1490" as="targetPoint" />
          </mxGeometry>
        </mxCell>
        <mxCell id="UnsMsZChyFch0J1aEtPe-55" value="data transporte" style="ellipse;whiteSpace=wrap;html=1;align=center;" vertex="1" parent="1">
          <mxGeometry x="37.5" y="1540" width="100" height="40" as="geometry" />
        </mxCell>
        <mxCell id="UnsMsZChyFch0J1aEtPe-56" value="" style="endArrow=none;html=1;rounded=0;entryX=0;entryY=1;entryDx=0;entryDy=0;exitX=1;exitY=0.5;exitDx=0;exitDy=0;" edge="1" parent="1" source="UnsMsZChyFch0J1aEtPe-55" target="UnsMsZChyFch0J1aEtPe-36">
          <mxGeometry width="50" height="50" relative="1" as="geometry">
            <mxPoint x="80" y="1590" as="sourcePoint" />
            <mxPoint x="130" y="1540" as="targetPoint" />
            <Array as="points">
              <mxPoint x="200" y="1560" />
            </Array>
          </mxGeometry>
        </mxCell>
      </root>
    </mxGraphModel>
  </diagram>
</mxfile>
